<?xml version="1.0" encoding="UTF-8" standalone="no"?>
<svg width="1871px" height="416px" viewBox="0 0 1871 416" version="1.1" xmlns="http://www.w3.org/2000/svg" xmlns:xlink="http://www.w3.org/1999/xlink" xmlns:sketch="http://www.bohemiancoding.com/sketch/ns">
    <title>Slice 1</title>
    <description>Created with Sketch (http://www.bohemiancoding.com/sketch)</description>
    <defs></defs>
    <g id="Page-1" stroke="none" stroke-width="1" fill="none" fill-rule="evenodd" sketch:type="MSPage">
        <g id="tm_script_logo" sketch:type="MSLayerGroup">
            <g id="Page-1">
                <g id="tastem_logo_outline_0807">
                    <path d="M1254.02,336.885 C1239.97,345.467 1217.06,349.092 1208.49,346.204 C1203.13,344.396 1199.93,341.888 1199.93,335.879 C1199.93,333.307 1200.71,329.087 1202.28,323.119 C1203.83,317.204 1205.82,310.308 1208.3,302.452 C1210.74,294.594 1213.34,286.245 1216.12,277.391 C1218.84,268.531 1221.45,259.899 1223.9,251.473 C1226.37,243.096 1228.37,235.342 1229.92,228.2 C1231.47,221.085 1232.24,215.432 1232.24,211.245 C1232.24,205.201 1230.71,201.132 1227.61,199.038 C1224.51,196.936 1220.58,195.872 1215.83,195.872 C1211.64,195.872 1206.87,197.251 1201.56,199.983 C1196.27,202.733 1190.8,206.299 1185.12,210.682 C1179.48,215.057 1173.81,219.91 1168.14,225.187 C1162.47,230.499 1157.2,235.691 1152.26,240.807 C1147.32,245.931 1142.95,250.63 1139.12,254.921 C1135.25,259.202 1132.27,262.454 1130.06,264.649 C1129.7,265.024 1129.33,265.194 1128.99,265.194 C1128.8,265.194 1128.68,264.743 1128.68,263.824 C1128.68,263.1 1129.75,260.257 1131.85,255.337 C1133.94,250.4 1136.24,244.365 1138.69,237.232 C1141.16,230.124 1143.39,222.258 1145.42,213.678 C1147.41,205.099 1148.43,196.876 1148.43,189.028 C1148.43,183.189 1147.2,178.03 1144.72,173.553 C1142.25,169.075 1137.84,166.837 1131.44,166.837 C1125.96,166.837 1120.12,168.573 1113.92,172.038 C1107.67,175.519 1101.49,179.997 1095.3,185.47 C1089.07,190.952 1082.99,197.08 1077.06,203.822 C1071.12,210.581 1065.61,217.288 1060.5,223.962 C1055.39,230.618 1050.79,236.9 1046.79,242.722 C1042.76,248.57 1039.64,253.243 1037.48,256.699 C1035.64,259.27 1034.09,260.521 1032.8,260.521 C1032.43,260.521 1032.27,260.359 1032.27,259.976 C1036.63,247.2 1040.5,235.147 1043.76,223.825 C1045.23,218.888 1046.66,213.917 1048.02,208.886 C1049.4,203.873 1050.63,198.936 1051.71,194.101 C1052.8,189.249 1053.67,184.746 1054.32,180.533 C1054.93,176.345 1055.27,172.779 1055.27,169.85 C1055.27,167.662 1055.08,165.432 1054.74,163.134 C1054.35,160.853 1053.76,158.725 1052.96,156.716 C1052.12,154.69 1051.03,152.962 1049.65,151.498 C1048.29,150.043 1046.5,149.123 1044.31,148.757 C1043.76,148.578 1042.76,148.493 1041.28,148.493 C1039.12,148.493 1036.04,148.953 1032.1,149.855 C1028.2,150.775 1024.34,151.992 1020.49,153.55 C1016.66,155.099 1013.27,156.92 1010.33,159.014 C1007.43,161.142 1005.95,163.475 1005.95,166.028 C1005.95,166.743 1006.33,167.288 1007.04,167.662 C1007.81,168.02 1008.56,168.667 1009.39,169.569 C1010.21,170.488 1010.99,171.825 1011.72,173.553 C1012.46,175.289 1012.81,177.885 1012.81,181.35 C1012.81,184.099 1012.17,189.309 1010.91,196.978 C1009.61,204.639 1007.89,213.875 1005.71,224.643 C1003.48,235.419 1000.93,247.166 998.02,259.857 C995.108,272.549 991.977,285.292 988.69,298.059 C985.422,310.853 982.068,323.093 978.681,334.79 C975.326,346.467 972.092,356.7 968.96,365.467 C968.602,366.93 968.397,367.919 968.397,368.464 C968.397,369.926 969.027,371.077 970.22,371.911 C971.394,372.719 973.539,373.135 976.654,373.135 C980.655,373.135 985.967,372.319 992.521,370.659 C997.646,369.383 1001.99,367.655 1005.56,365.467 C1009.12,363.27 1012.29,360.624 1015.15,357.516 C1017.97,354.419 1020.61,350.766 1023.08,346.561 C1025.55,342.365 1028.24,337.598 1031.17,332.303 C1033.91,327.383 1037.33,321.493 1041.45,314.633 C1045.55,307.789 1049.98,300.638 1054.74,293.148 C1059.46,285.649 1064.31,278.294 1069.25,271.085 C1074.17,263.866 1078.87,257.338 1083.36,251.473 C1087.84,245.651 1091.87,240.934 1095.55,237.377 C1099.21,233.836 1101.94,232.048 1103.77,232.048 C1104.86,232.048 1105.41,232.762 1105.41,234.235 C1105.41,238.62 1104.39,244.749 1102.4,252.596 C1100.39,260.444 1097.83,269.085 1094.72,278.481 C1091.62,287.887 1088.33,297.557 1084.88,307.525 C1081.39,317.475 1078.12,326.651 1075,335.053 C1071.91,343.454 1069.33,350.622 1067.33,356.554 C1065.32,362.487 1064.31,366.105 1064.31,367.382 C1064.31,369.569 1065.18,371.255 1066.9,372.446 C1068.65,373.622 1070.8,374.489 1073.35,375.051 C1075.91,375.596 1078.45,375.92 1081.46,376.005 C1084.49,376.09 1087.39,376.149 1089.92,376.149 C1092.14,376.149 1094.96,375.051 1097.06,372.855 C1099.17,370.659 1100.56,367.917 1102.06,364.967 C1103.88,361.383 1110.69,349.287 1115.84,339.436 C1118.83,333.732 1122.6,327.571 1126.91,320.812 C1131.22,314.053 1135.85,307.151 1140.89,300.128 C1145.91,293.089 1150.91,286.662 1155.95,280.798 C1160.94,274.966 1165.71,270.216 1170.22,266.565 C1174.68,262.93 1178.46,261.075 1181.58,261.075 C1183.94,261.075 1185.12,262.555 1185.12,265.466 C1185.12,266.914 1184.67,269.569 1183.79,273.4 C1182.83,277.247 1181.68,281.725 1180.2,286.832 C1178.73,291.948 1177.18,297.507 1175.55,303.55 C1173.91,309.559 1172.35,315.518 1170.9,321.357 C1169.42,327.196 1168.25,332.772 1167.33,338.066 C1166.39,343.37 1165.96,347.745 1165.96,351.2 C1165.96,356.333 1166.7,360.666 1168.14,364.223 C1169.62,367.782 1171.56,370.71 1174.05,372.991 C1176.5,375.272 1179.38,376.925 1182.65,377.911 C1185.95,378.932 1189.51,379.426 1193.37,379.426 C1199.57,379.426 1206.55,379.078 1213.31,378.167 C1220.19,377.248 1242.84,371.342 1263.34,360.717" id="Fill-1" fill="#FFFFFF" sketch:type="MSShapeGroup"></path>
                    <path d="M579.503,328.499 C572.08,339.096 556.095,345.71 556.095,345.71 C556.095,345.71 551.447,338.163 541.812,331.341 C533.821,325.684 525.553,323.851 525.553,323.851 C525.553,323.851 550.017,296.868 559.976,283.188 C569.85,269.527 577.579,256.639 583.01,244.62 C585.666,253.286 587.589,261.151 588.883,268.165 C590.109,275.256 590.739,281.912 590.739,288.202 C590.739,304.452 587.027,317.833 579.503,328.499 L579.503,328.499 L579.503,328.499 Z M639.854,249.344 C634.406,237.819 625.536,225.153 613.228,211.483 C620.174,205.61 625.468,199.676 628.976,193.658 C632.482,187.649 634.201,181.716 634.201,175.842 C634.201,169.535 632.125,164.53 628.039,160.887 C623.885,157.158 618.301,155.303 611.372,155.303 C599.643,155.303 589.53,159.236 581.171,167.032 C572.778,174.847 568.573,184.218 568.573,195.165 C568.573,199.464 569.135,203.26 570.36,206.546 C571.501,209.841 572.118,211.555 574.928,214.347 C567.808,239.467 539.346,278.303 512.836,306.744 C492.42,328.647 468.683,350.342 445.346,345.727 C447.293,346.112 438.46,376.408 440.729,376.616 C440.729,376.616 450.346,376.51 457.668,375.101 C464.393,373.807 469.243,372.144 474.6,370.012 C482.759,366.786 490.121,362.564 496.854,357.415 C503.294,363.714 507.618,366.512 519.384,370.224 C546.308,378.717 588.391,378.718 594.724,378.718 C609.558,378.718 629.391,377.217 629.391,377.217 L648.068,348.732 C643.718,348.885 641.938,348.956 638.97,348.998 C628.997,349.137 627.058,347.218 627.058,347.218 C627.058,347.218 645.208,325.007 649.308,300.467 C652.812,279.495 642.356,254.652 639.854,249.344 L639.854,249.344 L639.854,249.344 Z" id="Fill-2" fill="#FFFFFF" sketch:type="MSShapeGroup"></path>
                    <path d="M865.11,311.466 C861.604,307.466 859.101,302.954 857.518,298.008 C856.02,292.995 855.236,287.13 855.236,280.26 C855.236,262.223 859.748,246.399 868.702,232.814 C877.641,219.143 887.872,212.342 899.551,212.342 C905.117,212.342 909.339,213.917 912.268,217.067 C915.195,220.216 916.711,224.796 916.711,230.805 C916.711,242.833 911.791,256.861 901.814,273.034 C891.872,289.241 879.684,301.992 865.11,311.466 L865.11,311.466 L865.11,311.466 Z M1003.51,235.1 C1003.51,235.1 1004.92,298.509 966.808,331.467 C948.596,347.217 919.308,346.265 909.308,343.967 C902.237,342.342 893.813,338.73 887.939,333.292 C908.131,318.046 924.219,300.519 936.322,280.55 C948.427,260.649 954.453,242.467 954.453,225.936 C954.453,210.904 950.215,198.962 941.771,190.219 C933.326,181.495 921.801,177.136 907.263,177.136 C881.232,177.136 858.743,187.436 839.643,208.12 C820.541,228.805 811.008,253.141 811.008,281.12 C811.008,293.148 812.302,303.592 814.804,312.538 C817.307,321.485 821.239,329.426 826.551,336.44 C818.805,339.803 810.871,342.45 802.699,344.383 C795.647,346.124 787.808,348.217 772.597,347.272 C774.036,347.396 764.475,376.633 764.475,376.633 C779.475,377.217 798.027,373.434 808.777,370.659 C822.465,367.143 836.067,362.207 849.584,355.762 C858.232,362.844 868.55,368.148 880.433,371.579 C892.315,375.017 906.054,376.737 921.733,376.737 C921.733,376.737 938.076,375.426 951.287,370.438 C996.571,353.311 1014.31,267.717 1014.31,267.717 L1003.51,235.1 L1003.51,235.1 Z" id="Fill-3" fill="#FFFFFF" sketch:type="MSShapeGroup"></path>
                    <path d="M815.724,196.337 C813.007,194.849 809.499,195.217 806.469,195.217 L774.47,195.217 L774.423,195.217 C778.131,184.322 781.778,173.609 785.491,162.701 C788.363,154.261 791.236,145.822 794.108,137.383 C795.08,134.528 796.052,131.673 797.023,128.818 C797.983,125.999 799.346,123.493 801.137,121.063 C803.117,118.376 805.912,116.033 809.082,114.915 C810.391,114.453 812.43,114.716 813.434,113.7 C814.583,112.537 814.878,110.327 814.865,108.774 C814.831,104.726 812.612,100.886 810.551,97.534 C808.279,93.839 805.581,90.427 802.663,87.224 C799.841,84.129 796.807,81.233 793.566,78.581 C790.978,76.464 788.264,74.408 785.135,73.16 C777.129,69.967 770.006,76.247 765.378,82.179 C760.387,88.579 757.829,95.578 754.936,103.095 C753.497,106.834 743.256,142.062 743.256,142.062 C743.256,142.062 733.658,173.8 728.859,189.668 C728.333,191.409 727.806,193.15 727.279,194.891 C727.146,195.334 727.079,195.217 726.573,195.217 C724.829,195.217 714.522,195.202 711.113,195.219 C707.831,195.235 704.389,195.263 701.191,196.096 C698.331,196.841 696.396,198.936 695.474,201.713 C694.378,205.012 693.264,208.305 692.155,211.6 C691.408,213.819 690.642,215.911 691.538,218.249 C692.637,221.117 696.473,221.217 699.062,221.217 L719.064,221.217 L719.451,221.217 C715.84,233.973 708.616,259.485 708.616,259.485 L696.316,300.72 C696.316,300.72 690.391,323.637 682.808,330.717 C673.398,339.502 657.391,347.551 638.97,348.998 C641.851,348.87 629.391,367.217 629.391,377.217 C656.891,375.218 680.85,366.718 698.308,348.718 C705.998,360.383 718.152,368.8 731.253,372.262 C738.58,374.199 746.101,375.35 753.645,376.01 C757.918,376.384 762.205,376.598 766.494,376.684 C767.149,376.698 774.487,353.493 775.266,350.879 C775.474,350.18 775.682,349.483 775.89,348.785 C775.928,348.66 775.965,348.535 776.002,348.411 C776.065,348.197 779.421,348.115 779.811,348.079 C772.29,347.43 764.681,346.273 757.554,343.699 C751.648,341.567 745.774,338.258 742.275,332.872 C738.603,327.218 738.826,320.602 739.779,314.189 C740.932,306.437 742.991,298.862 745.275,291.377 C749.125,278.763 765.454,225.068 766.159,222.751 C766.492,221.655 766.288,221.217 767.43,221.217 C775.208,221.217 795.237,221.225 797.474,221.217 C803.712,221.217 811.678,220.836 813.782,213.699 C814.655,211.168 815.566,208.649 816.458,206.124 C817.542,203.052 819.268,198.423 815.724,196.337 C814.293,195.553 817.068,197.128 815.724,196.337" id="Fill-4" fill="#FFFFFF" sketch:type="MSShapeGroup"></path>
                    <g id="Group-8">
                        <g id="Clip-6"></g>
                        <path d="M1589.24,309.458 C1573.79,331.146 1559.96,341.956 1547.82,341.956 C1542.82,341.956 1536.72,340.092 1533.65,336.372 C1530.57,332.721 1529.06,327.708 1529.06,321.408 C1529.06,313.041 1531.85,302.376 1537.42,289.564 C1543.03,276.686 1550.32,264.581 1559.27,253.286 C1569.57,239.965 1579.87,229.954 1590.17,223.298 C1600.42,216.555 1612.65,213.202 1622.68,213.202 C1625.03,213.202 1627.46,213.483 1629.83,214.053 C1632.18,214.633 1634.63,215.415 1637.13,216.555 C1620.65,256.784 1604.7,287.768 1589.24,309.458 L1589.24,309.458 L1589.24,309.458 Z M1746.05,71.689 C1744.45,67.432 1742.17,63.142 1739.26,58.827 C1736.32,54.52 1733.1,50.536 1729.66,46.859 C1726.15,43.19 1723.26,40.56 1721,39.07 C1719.43,38.04 1718.3,37.444 1717.61,37.249 C1715.04,36.125 1712.52,35.861 1710.07,36.474 C1707.6,37.095 1705.26,38.177 1702.93,39.76 C1700.68,41.334 1698.57,43.198 1696.55,45.36 C1694.57,47.574 1692.82,49.829 1691.27,52.162 C1689.21,55.277 1687.07,59.303 1684.77,64.206 C1683.07,67.883 1681.38,71.826 1679.69,76.054 C1678.48,78.776 1677.32,81.71 1676.22,84.874 C1675.87,85.929 1675.54,86.923 1675.22,87.876 C1673.98,91.317 1672.76,94.814 1671.57,98.381 L1639.57,187.002 C1633,183.648 1626.68,181.137 1620.67,179.562 C1614.68,177.92 1608.36,177.136 1601.79,177.136 C1585.33,177.136 1567.29,181.282 1551.75,189.505 C1536.31,197.744 1521.7,209.917 1507.96,226.012 C1496.81,239.113 1488.15,253.635 1481.98,269.594 C1475.84,285.555 1472.74,301.524 1472.74,317.62 C1472.74,321.842 1472.9,325.629 1473.25,329.069 C1474.72,343.55 1486.43,360.592 1486.43,360.592 C1489.38,365.094 1495.15,370.796 1501.59,373.519 C1508.02,376.235 1515.21,377.596 1523.21,377.596 C1539.24,377.596 1554.69,371.29 1569.43,358.632 C1584.19,345.966 1598.71,326.703 1613.1,300.878 C1609.25,312.036 1606.44,321.204 1604.72,328.286 C1603.07,335.444 1602.22,341.454 1602.22,346.315 C1602.22,357.415 1606.73,365.212 1615.67,369.791 C1623.62,373.932 1636.69,376.198 1654.95,376.648 C1654.95,376.648 1662.43,376.42 1668.05,375.735 C1673.66,375.05 1714.81,337.092 1714.81,337.092 C1714.81,337.092 1686.18,348.592 1666.81,348.467 C1655.91,348.397 1652.53,345.252 1649.1,342.739 C1644.79,339.658 1642.65,334.432 1642.65,326.992 C1642.65,318.769 1647.09,300.519 1655.89,272.319 C1664.7,244.05 1676,214.053 1689.88,182.354 L1727.6,95.105 C1728.02,94.159 1728.5,93.108 1729.02,91.973 C1730.96,89.253 1732.75,87.329 1734.38,86.219 C1736.37,84.883 1738.14,83.997 1739.64,83.597 C1741.13,83.197 1742.39,83.035 1743.45,83.188 C1744.44,83.291 1745.22,82.95 1745.73,82.184 C1747.52,79.46 1747.62,75.962 1746.05,71.689 L1746.05,71.689 L1746.05,71.689 Z" id="Fill-5" fill="#FFFFFF" sketch:type="MSShapeGroup"></path>
                        <path d="M182.553,262.548 C177.555,273.466 172.122,284.192 166.681,294.895 C161.194,305.687 155.68,316.483 149.704,327.014 C145.63,334.193 141.331,341.249 136.705,348.087 C132.652,354.078 128.268,359.445 122.848,364.263 C117.636,368.897 111.868,373.424 105.949,377.12 C101.157,380.112 97.66,382.117 93.376,384.617 C90.773,386.135 87.735,388.32 86.268,391.068 C84.719,393.968 84.553,396.564 85.041,399.818 C86.009,406.289 93.638,409.527 99.028,411.709 C105.278,414.237 111.786,415.522 118.492,415.811 C125.344,416.106 133.275,416.17 139.87,415.133 C153.047,413.06 163.861,405.409 173.062,395.68 C181.962,386.268 189.22,375.302 195.884,364.248 C203.231,352.058 209.198,339.198 214.591,326.043 C219.638,313.732 224.707,301.432 229.828,289.151 C235.313,275.999 240.789,262.84 245.962,249.562 C251.438,235.508 256.188,221.195 261.163,206.959 C273.067,172.895 284.864,138.786 300.025,106.001 C301.9,101.946 303.816,97.911 305.771,93.895 C310.138,93.437 314.497,92.901 318.842,92.27 C326.755,91.122 334.629,89.662 342.395,87.752 C357.276,84.09 372.091,78.763 385.402,71.105 C398.58,63.525 411.357,52.689 416.022,37.685 C418.159,30.814 418.131,23.21 414.739,16.743 C411.604,10.765 406.232,6.315 400.031,3.784 C392.639,0.767 384.381,0.226 376.479,0.259 C368.114,0.294 359.856,1.479 351.818,3.786 C335.718,8.407 321.166,16.706 308.194,27.222 C297.76,35.682 288.799,44.86 279.902,54.905 C279.902,54.905 278.431,54.879 275.313,55.125 C272.928,55.313 270.548,55.556 268.165,55.771 C263.689,56.174 259.214,56.574 254.738,56.97 C246.21,57.726 237.68,58.469 229.149,59.199 C213.493,60.537 197.83,61.787 182.169,63.058 C165.469,64.415 148.777,65.89 132.11,67.619 C116.143,69.276 100.181,71.097 84.359,73.85 C69.366,76.459 54.248,79.651 40.19,85.624 C26.815,91.307 14.625,99.895 7.767,113.037 C4.309,119.663 2.267,126.956 1.071,134.308 C-0.323,142.878 -0.527,151.506 1.487,159.998 C5.14,175.395 15.292,188.122 28.965,195.889 C43.403,204.091 60.444,205.696 76.769,205.205 C92.448,204.733 108.689,201.34 122.949,194.703 C129.79,191.519 136.321,187.423 141.103,181.485 C143.003,179.124 144.858,176.195 144.598,173.03 C144.305,169.47 141.302,168.467 138.227,168.046 C133.991,167.466 129.385,167.916 125.124,168.112 C121.211,168.292 117.318,168.736 113.406,168.905 C105.698,169.24 97.836,168.839 90.216,167.611 C82.051,166.294 73.469,164.616 66.054,160.802 C62.937,159.199 59.388,157.124 57.685,153.93 C56.277,151.289 56.427,148.159 57.38,145.392 C59.378,139.597 64.794,135.68 69.982,132.907 C76.152,129.609 82.913,127.295 89.586,125.253 C104.879,120.574 120.697,117.816 136.461,115.275 C153.648,112.504 170.912,110.346 188.196,108.287 C207.499,105.987 226.802,103.691 246.105,101.387 C234.604,134.316 222.483,167.035 209.468,199.397 C200.93,220.628 192.042,241.724 182.553,262.548 C175.76,277.384 189.319,247.701 182.553,262.548" id="Fill-7" fill="#FFFFFF" sketch:type="MSShapeGroup"></path>
                    </g>
                    <path d="M1357.95,311.321 C1341.56,331.725 1326.51,341.956 1312.86,341.956 C1307.97,341.956 1304.34,340.305 1301.98,337.01 C1299.61,333.716 1298.39,328.643 1298.39,321.842 C1298.39,312.317 1301.04,301.235 1306.27,288.569 C1311.48,275.893 1318.56,263.943 1327.51,252.631 C1337.32,240.331 1347.55,230.6 1358.23,223.434 C1368.97,216.352 1378.42,212.768 1386.62,212.768 C1390.44,212.768 1394.15,213.483 1397.86,214.844 C1401.52,216.284 1405.32,218.428 1409.04,221.356 C1391.29,260.938 1374.26,290.918 1357.95,311.321 L1357.95,311.321 L1357.95,311.321 Z M1476.66,339.181 C1476.66,339.181 1460.84,348.04 1443.95,348.122 C1435.53,348.163 1427.62,345.531 1424.57,343.676 C1421.06,341.531 1419.36,337.667 1419.36,332.083 C1419.36,323.919 1421.71,312.403 1426.36,297.37 C1431.07,282.338 1438.02,264.223 1447.26,243.182 C1451.84,232.524 1457.14,221.356 1463.15,209.628 C1469.16,197.881 1472.15,191.3 1472.15,189.871 C1472.15,185.436 1468.58,181.571 1461.36,178.286 C1454.21,174.983 1445.75,173.34 1436.09,173.34 C1432.59,173.34 1429.93,174.132 1428.14,175.63 C1426.36,177.205 1424.5,180.856 1422.71,186.576 L1419.79,195.957 C1413.91,190.083 1407.68,185.862 1401.09,183.223 C1394.52,180.567 1386.71,179.205 1377.6,179.205 C1359.43,179.205 1341.9,184.499 1324.88,195.02 C1307.92,205.61 1292.44,220.931 1278.43,241.037 C1269.34,254.35 1262.31,267.883 1257.24,281.69 C1252.23,295.429 1249.73,308.095 1249.73,319.688 C1249.73,323.348 1249.88,326.78 1250.17,329.937 C1250.45,333.01 1250.87,336.083 1251.37,339.01 C1253.93,353.342 1261.26,364.36 1261.26,364.36 C1264.61,368.718 1269.26,372.005 1275.22,374.234 C1281.14,376.448 1288.09,377.596 1296.04,377.596 C1312.86,377.596 1328.54,371.442 1343.19,359.133 C1357.85,346.817 1372.68,327.426 1387.64,300.878 C1383.78,312.036 1380.99,321.204 1379.27,328.286 C1377.6,335.444 1376.75,341.454 1376.75,346.315 C1376.75,357.415 1381.28,365.212 1390.21,369.791 C1398.46,374.085 1416.5,376.864 1431.53,376.69 C1465.31,376.3 1486.43,360.592 1486.43,360.592 L1476.66,339.181 L1476.66,339.181 Z" id="Fill-9" fill="#FFFFFF" sketch:type="MSShapeGroup"></path>
                    <path d="M1755.08,311.449 C1751.57,307.44 1749.07,302.928 1747.48,297.983 C1745.97,292.977 1745.2,287.104 1745.2,280.243 C1745.2,262.206 1749.7,246.383 1758.65,232.798 C1767.61,219.118 1777.84,212.317 1789.5,212.317 C1795.08,212.317 1799.29,213.9 1802.23,217.05 C1805.16,220.2 1806.68,224.778 1806.68,230.788 C1806.68,242.807 1801.74,256.835 1791.78,273.016 C1781.84,289.181 1769.6,302.001 1755.08,311.449 L1755.08,311.449 L1755.08,311.449 Z M1856.7,320.012 C1855.4,322.067 1853.98,324.108 1852.44,326.094 C1844.9,335.819 1834.39,344.227 1820.88,346.391 C1810.99,347.974 1801.43,347.225 1794.49,344.936 C1787.61,342.569 1781.18,338.705 1775.3,333.274 C1795.49,318.029 1811.58,300.494 1823.68,280.533 C1835.79,260.632 1841.78,242.45 1841.78,225.919 C1841.78,210.887 1837.58,198.945 1829.13,190.202 C1820.69,181.478 1809.16,177.111 1794.63,177.111 C1768.58,177.111 1746.11,187.411 1726.99,208.104 C1707.89,228.78 1698.37,253.116 1698.37,281.103 C1698.37,293.122 1699.66,303.575 1702.17,312.522 C1704.67,321.46 1709.51,330.078 1714.81,337.092 C1707.08,340.455 1695.7,344.258 1691.39,345.467 C1687.03,346.692 1685.77,345.932 1674.76,348.152 C1673.18,349.551 1668.57,353.266 1670.85,353.426 L1666,375.945 C1676.13,374.961 1686.18,373.207 1696.14,370.633 C1709.83,367.118 1723.43,362.19 1736.95,355.746 C1745.59,362.828 1755.93,368.132 1767.78,371.561 C1779.68,375.001 1786.67,375.92 1802.34,376.438 C1828.13,377.299 1854.22,367.217 1866.71,341.383 C1876.27,321.625 1866.13,305.031 1856.7,320.012 L1856.7,320.012 L1856.7,320.012 Z" id="Fill-10" fill="#FFFFFF" sketch:type="MSShapeGroup"></path>
                    <path d="M373.954,311.321 C357.56,331.725 342.51,341.956 328.856,341.956 C323.971,341.956 320.345,340.305 317.979,337.01 C315.611,333.716 314.386,328.643 314.386,321.842 C314.386,312.317 317.042,301.235 322.269,288.569 C327.478,275.893 334.56,263.943 343.515,252.631 C353.32,240.331 363.552,230.6 374.227,223.434 C384.969,216.352 394.417,212.768 402.622,212.768 C406.436,212.768 410.147,213.483 413.858,214.844 C417.519,216.284 421.315,218.428 425.043,221.356 C407.287,260.938 390.263,290.918 373.954,311.321 L373.954,311.321 L373.954,311.321 Z M492.664,339.181 C492.664,339.181 476.558,348.033 459.671,348.122 C451.87,348.163 443.617,345.531 440.569,343.676 C437.063,341.531 435.36,337.667 435.36,332.083 C435.36,323.919 437.709,312.403 442.357,297.37 C447.072,282.338 454.019,264.223 463.263,243.182 C467.842,232.524 473.137,221.356 479.146,209.628 C485.156,197.881 488.152,191.3 488.152,189.871 C488.152,185.436 484.577,181.571 477.358,178.286 C470.209,174.983 461.747,173.34 452.095,173.34 C448.588,173.34 445.932,174.132 444.145,175.63 C442.357,177.205 440.501,180.856 438.714,186.576 L435.785,195.957 C429.912,190.083 423.682,185.862 417.093,183.223 C410.521,180.567 402.708,179.205 393.6,179.205 C375.435,179.205 357.899,184.499 340.876,195.02 C323.92,205.61 308.444,220.931 294.434,241.037 C285.343,254.35 278.312,267.883 273.238,281.69 C268.233,295.429 265.73,308.095 265.73,319.688 C265.73,323.348 265.884,326.78 266.174,329.937 C266.446,333.01 266.871,336.083 267.365,339.01 C269.933,353.342 277.256,364.36 277.256,364.36 C280.61,368.718 285.258,372.005 291.216,374.234 C297.141,376.448 304.086,377.596 312.037,377.596 C328.856,377.596 344.536,371.442 359.193,359.133 C373.852,346.817 388.68,327.426 403.644,300.878 C399.779,312.036 396.987,321.204 395.268,328.286 C393.6,335.444 392.748,341.454 392.748,346.315 C392.748,357.415 397.277,365.212 406.215,369.791 C414.458,374.085 432.496,376.864 447.529,376.69 C481.308,376.3 502.433,360.592 502.433,360.592 L492.664,339.181 L492.664,339.181 Z" id="Fill-11" fill="#FFFFFF" sketch:type="MSShapeGroup"></path>
                    <path d="M1254.02,336.885 C1239.97,345.467 1217.06,349.092 1208.49,346.204 C1203.13,344.396 1199.93,341.888 1199.93,335.879 C1199.93,333.307 1200.71,329.087 1202.28,323.119 C1203.83,317.204 1205.82,310.308 1208.3,302.452 C1210.74,294.594 1213.34,286.245 1216.12,277.391 C1218.84,268.531 1221.45,259.899 1223.9,251.473 C1226.37,243.096 1228.37,235.342 1229.92,228.2 C1231.47,221.085 1232.24,215.432 1232.24,211.245 C1232.24,205.201 1230.71,201.132 1227.61,199.038 C1224.51,196.936 1220.58,195.872 1215.83,195.872 C1211.64,195.872 1206.87,197.251 1201.56,199.983 C1196.27,202.733 1190.8,206.299 1185.12,210.682 C1179.48,215.057 1173.81,219.91 1168.14,225.187 C1162.47,230.499 1157.2,235.691 1152.26,240.807 C1147.32,245.931 1142.95,250.63 1139.12,254.921 C1135.25,259.202 1132.27,262.454 1130.06,264.649 C1129.7,265.024 1129.33,265.194 1128.99,265.194 C1128.8,265.194 1128.68,264.743 1128.68,263.824 C1128.68,263.1 1129.75,260.257 1131.85,255.337 C1133.94,250.4 1136.24,244.365 1138.69,237.232 C1141.16,230.124 1143.39,222.258 1145.42,213.678 C1147.41,205.099 1148.43,196.876 1148.43,189.028 C1148.43,183.189 1147.2,178.03 1144.72,173.553 C1142.25,169.075 1137.84,166.837 1131.44,166.837 C1125.96,166.837 1120.12,168.573 1113.92,172.038 C1107.67,175.519 1101.49,179.997 1095.3,185.47 C1089.07,190.952 1082.99,197.08 1077.06,203.822 C1071.12,210.581 1065.61,217.288 1060.5,223.962 C1055.39,230.618 1050.79,236.9 1046.79,242.722 C1042.76,248.57 1039.64,253.243 1037.48,256.699 C1035.64,259.27 1034.09,260.521 1032.8,260.521 C1032.43,260.521 1032.27,260.359 1032.27,259.976 C1036.63,247.2 1040.5,235.147 1043.76,223.825 C1045.23,218.888 1046.66,213.917 1048.02,208.886 C1049.4,203.873 1050.63,198.936 1051.71,194.101 C1052.8,189.249 1053.67,184.746 1054.32,180.533 C1054.93,176.345 1055.27,172.779 1055.27,169.85 C1055.27,167.662 1055.08,165.432 1054.74,163.134 C1054.35,160.853 1053.76,158.725 1052.96,156.716 C1052.12,154.69 1051.03,152.962 1049.65,151.498 C1048.29,150.043 1046.5,149.123 1044.31,148.757 C1043.76,148.578 1042.76,148.493 1041.28,148.493 C1039.12,148.493 1036.04,148.953 1032.1,149.855 C1028.2,150.775 1024.34,151.992 1020.49,153.55 C1016.66,155.099 1013.27,156.92 1010.33,159.014 C1007.43,161.142 1005.95,163.475 1005.95,166.028 C1005.95,166.743 1006.33,167.288 1007.04,167.662 C1007.81,168.02 1008.56,168.667 1009.39,169.569 C1010.21,170.488 1010.99,171.825 1011.72,173.553 C1012.46,175.289 1012.81,177.885 1012.81,181.35 C1012.81,184.099 1012.17,189.309 1010.91,196.978 C1009.61,204.639 1007.89,213.875 1005.71,224.643 C1003.48,235.419 1000.93,247.166 998.02,259.857 C995.108,272.549 991.977,285.292 988.69,298.059 C985.422,310.853 982.068,323.093 978.681,334.79 C975.326,346.467 972.092,356.7 968.96,365.467 C968.602,366.93 968.397,367.919 968.397,368.464 C968.397,369.926 969.027,371.077 970.22,371.911 C971.394,372.719 973.539,373.135 976.654,373.135 C980.655,373.135 985.967,372.319 992.521,370.659 C997.646,369.383 1001.99,367.655 1005.56,365.467 C1009.12,363.27 1012.29,360.624 1015.15,357.516 C1017.97,354.419 1020.61,350.766 1023.08,346.561 C1025.55,342.365 1028.24,337.598 1031.17,332.303 C1033.91,327.383 1037.33,321.493 1041.45,314.633 C1045.55,307.789 1049.98,300.638 1054.74,293.148 C1059.46,285.649 1064.31,278.294 1069.25,271.085 C1074.17,263.866 1078.87,257.338 1083.36,251.473 C1087.84,245.651 1091.87,240.934 1095.55,237.377 C1099.21,233.836 1101.94,232.048 1103.77,232.048 C1104.86,232.048 1105.41,232.762 1105.41,234.235 C1105.41,238.62 1104.39,244.749 1102.4,252.596 C1100.39,260.444 1097.83,269.085 1094.72,278.481 C1091.62,287.887 1088.33,297.557 1084.88,307.525 C1081.39,317.475 1078.12,326.651 1075,335.053 C1071.91,343.454 1069.33,350.622 1067.33,356.554 C1065.32,362.487 1064.31,366.105 1064.31,367.382 C1064.31,369.569 1065.18,371.255 1066.9,372.446 C1068.65,373.622 1070.8,374.489 1073.35,375.051 C1075.91,375.596 1078.45,375.92 1081.46,376.005 C1084.49,376.09 1087.39,376.149 1089.92,376.149 C1092.14,376.149 1094.96,375.051 1097.06,372.855 C1099.17,370.659 1100.56,367.917 1102.06,364.967 C1103.88,361.383 1110.69,349.287 1115.84,339.436 C1118.83,333.732 1122.6,327.571 1126.91,320.812 C1131.22,314.053 1135.85,307.151 1140.89,300.128 C1145.91,293.089 1150.91,286.662 1155.95,280.798 C1160.94,274.966 1165.71,270.216 1170.22,266.565 C1174.68,262.93 1178.46,261.075 1181.58,261.075 C1183.94,261.075 1185.12,262.555 1185.12,265.466 C1185.12,266.914 1184.67,269.569 1183.79,273.4 C1182.83,277.247 1181.68,281.725 1180.2,286.832 C1178.73,291.948 1177.18,297.507 1175.55,303.55 C1173.91,309.559 1172.35,315.518 1170.9,321.357 C1169.42,327.196 1168.25,332.772 1167.33,338.066 C1166.39,343.37 1165.96,347.745 1165.96,351.2 C1165.96,356.333 1166.7,360.666 1168.14,364.223 C1169.62,367.782 1171.56,370.71 1174.05,372.991 C1176.5,375.272 1179.38,376.925 1182.65,377.911 C1185.95,378.932 1189.51,379.426 1193.37,379.426 C1199.57,379.426 1206.55,379.078 1213.31,378.167 C1220.19,377.248 1242.84,371.342 1263.34,360.717" id="Fill-12" fill="#FFFFFF" sketch:type="MSShapeGroup"></path>
                    <path d="M579.503,328.499 C572.08,339.096 556.095,345.71 556.095,345.71 C556.095,345.71 551.447,338.163 541.812,331.341 C533.821,325.684 525.553,323.851 525.553,323.851 C525.553,323.851 550.017,296.868 559.976,283.188 C569.85,269.527 577.579,256.639 583.01,244.62 C585.666,253.286 587.589,261.151 588.883,268.165 C590.109,275.256 590.739,281.912 590.739,288.202 C590.739,304.452 587.027,317.833 579.503,328.499 L579.503,328.499 L579.503,328.499 Z M639.854,249.344 C634.406,237.819 625.536,225.153 613.228,211.483 C620.174,205.61 625.468,199.676 628.976,193.658 C632.482,187.649 634.201,181.716 634.201,175.842 C634.201,169.535 632.125,164.53 628.039,160.887 C623.885,157.158 618.301,155.303 611.372,155.303 C599.643,155.303 589.53,159.236 581.171,167.032 C572.778,174.847 568.573,184.218 568.573,195.165 C568.573,199.464 569.135,203.26 570.36,206.546 C571.501,209.841 572.118,211.555 574.928,214.347 C567.808,239.467 539.346,278.303 512.836,306.744 C492.42,328.647 468.683,350.342 445.346,345.727 C447.293,346.112 438.46,376.408 440.729,376.616 C440.729,376.616 450.346,376.51 457.668,375.101 C464.393,373.807 469.243,372.144 474.6,370.012 C482.759,366.786 490.121,362.564 496.854,357.415 C503.294,363.714 507.618,366.512 519.384,370.224 C546.308,378.717 588.391,378.718 594.724,378.718 C609.558,378.718 629.391,377.217 629.391,377.217 L648.068,348.732 C643.718,348.885 641.938,348.956 638.97,348.998 C628.997,349.137 627.058,347.218 627.058,347.218 C627.058,347.218 645.208,325.007 649.308,300.467 C652.812,279.495 642.356,254.652 639.854,249.344 L639.854,249.344 L639.854,249.344 Z" id="Fill-13" fill="#FFFFFF" sketch:type="MSShapeGroup"></path>
                    <path d="M865.11,311.466 C861.604,307.466 859.101,302.954 857.518,298.008 C856.02,292.995 855.236,287.13 855.236,280.26 C855.236,262.223 859.748,246.399 868.702,232.814 C877.641,219.143 887.872,212.342 899.551,212.342 C905.117,212.342 909.339,213.917 912.268,217.067 C915.195,220.216 916.711,224.796 916.711,230.805 C916.711,242.833 911.791,256.861 901.814,273.034 C891.872,289.241 879.684,301.992 865.11,311.466 L865.11,311.466 L865.11,311.466 Z M1003.51,235.1 C1003.51,235.1 1004.92,298.509 966.808,331.467 C948.596,347.217 919.308,346.265 909.308,343.967 C902.237,342.342 893.813,338.73 887.939,333.292 C908.131,318.046 924.219,300.519 936.322,280.55 C948.427,260.649 954.453,242.467 954.453,225.936 C954.453,210.904 950.215,198.962 941.771,190.219 C933.326,181.495 921.801,177.136 907.263,177.136 C881.232,177.136 858.743,187.436 839.643,208.12 C820.541,228.805 811.008,253.141 811.008,281.12 C811.008,293.148 812.302,303.592 814.804,312.538 C817.307,321.485 821.239,329.426 826.551,336.44 C818.805,339.803 810.871,342.45 802.699,344.383 C795.647,346.124 787.808,348.217 772.597,347.272 C774.036,347.396 764.475,376.633 764.475,376.633 C779.475,377.217 798.027,373.434 808.777,370.659 C822.465,367.143 836.067,362.207 849.584,355.762 C858.232,362.844 868.55,368.148 880.433,371.579 C892.315,375.017 906.054,376.737 921.733,376.737 C921.733,376.737 938.076,375.426 951.287,370.438 C996.571,353.311 1014.31,267.717 1014.31,267.717 L1003.51,235.1 L1003.51,235.1 Z" id="Fill-14" fill="#FFFFFF" sketch:type="MSShapeGroup"></path>
                    <path d="M815.724,196.337 C813.007,194.849 809.499,195.217 806.469,195.217 L774.47,195.217 L774.423,195.217 C778.131,184.322 781.778,173.609 785.491,162.701 C788.363,154.261 791.236,145.822 794.108,137.383 C795.08,134.528 796.052,131.673 797.023,128.818 C797.983,125.999 799.346,123.493 801.137,121.063 C803.117,118.376 805.912,116.033 809.082,114.915 C810.391,114.453 812.43,114.716 813.434,113.7 C814.583,112.537 814.878,110.327 814.865,108.774 C814.831,104.726 812.612,100.886 810.551,97.534 C808.279,93.839 805.581,90.427 802.663,87.224 C799.841,84.129 796.807,81.233 793.566,78.581 C790.978,76.464 788.264,74.408 785.135,73.16 C777.129,69.967 770.006,76.247 765.378,82.179 C760.387,88.579 757.829,95.578 754.936,103.095 C753.497,106.834 743.256,142.062 743.256,142.062 C743.256,142.062 733.658,173.8 728.859,189.668 C728.333,191.409 727.806,193.15 727.279,194.891 C727.146,195.334 727.079,195.217 726.573,195.217 C724.829,195.217 714.522,195.202 711.113,195.219 C707.831,195.235 704.389,195.263 701.191,196.096 C698.331,196.841 696.396,198.936 695.474,201.713 C694.378,205.012 693.264,208.305 692.155,211.6 C691.408,213.819 690.642,215.911 691.538,218.249 C692.637,221.117 696.473,221.217 699.062,221.217 L719.064,221.217 L719.451,221.217 C715.84,233.973 708.616,259.485 708.616,259.485 L696.316,300.72 C696.316,300.72 690.391,323.637 682.808,330.717 C673.398,339.502 657.391,347.551 638.97,348.998 C641.851,348.87 629.391,367.217 629.391,377.217 C656.891,375.218 680.85,366.718 698.308,348.718 C705.998,360.383 718.152,368.8 731.253,372.262 C738.58,374.199 746.101,375.35 753.645,376.01 C757.918,376.384 762.205,376.598 766.494,376.684 C767.149,376.698 774.487,353.493 775.266,350.879 C775.474,350.18 775.682,349.483 775.89,348.785 C775.928,348.66 775.965,348.535 776.002,348.411 C776.065,348.197 779.421,348.115 779.811,348.079 C772.29,347.43 764.681,346.273 757.554,343.699 C751.648,341.567 745.774,338.258 742.275,332.872 C738.603,327.218 738.826,320.602 739.779,314.189 C740.932,306.437 742.991,298.862 745.275,291.377 C749.125,278.763 765.454,225.068 766.159,222.751 C766.492,221.655 766.288,221.217 767.43,221.217 C775.208,221.217 795.237,221.225 797.474,221.217 C803.712,221.217 811.678,220.836 813.782,213.699 C814.655,211.168 815.566,208.649 816.458,206.124 C817.542,203.052 819.268,198.423 815.724,196.337 C814.293,195.553 817.068,197.128 815.724,196.337" id="Fill-15" fill="#FFFFFF" sketch:type="MSShapeGroup"></path>
                    <g id="Group-19">
                        <g id="Clip-17"></g>
                        <path d="M1589.24,309.458 C1573.79,331.146 1559.96,341.956 1547.82,341.956 C1542.82,341.956 1536.72,340.092 1533.65,336.372 C1530.57,332.721 1529.06,327.708 1529.06,321.408 C1529.06,313.041 1531.85,302.376 1537.42,289.564 C1543.03,276.686 1550.32,264.581 1559.27,253.286 C1569.57,239.965 1579.87,229.954 1590.17,223.298 C1600.42,216.555 1612.65,213.202 1622.68,213.202 C1625.03,213.202 1627.46,213.483 1629.83,214.053 C1632.18,214.633 1634.63,215.415 1637.13,216.555 C1620.65,256.784 1604.7,287.768 1589.24,309.458 L1589.24,309.458 L1589.24,309.458 Z M1746.05,71.689 C1744.45,67.432 1742.17,63.142 1739.26,58.827 C1736.32,54.52 1733.1,50.536 1729.66,46.859 C1726.15,43.19 1723.26,40.56 1721,39.07 C1719.43,38.04 1718.3,37.444 1717.61,37.249 C1715.04,36.125 1712.52,35.861 1710.07,36.474 C1707.6,37.095 1705.26,38.177 1702.93,39.76 C1700.68,41.334 1698.57,43.198 1696.55,45.36 C1694.57,47.574 1692.82,49.829 1691.27,52.162 C1689.21,55.277 1687.07,59.303 1684.77,64.206 C1683.07,67.883 1681.38,71.826 1679.69,76.054 C1678.48,78.776 1677.32,81.71 1676.22,84.874 C1675.87,85.929 1675.54,86.923 1675.22,87.876 C1673.98,91.317 1672.76,94.814 1671.57,98.381 L1639.57,187.002 C1633,183.648 1626.68,181.137 1620.67,179.562 C1614.68,177.92 1608.36,177.136 1601.79,177.136 C1585.33,177.136 1567.29,181.282 1551.75,189.505 C1536.31,197.744 1521.7,209.917 1507.96,226.012 C1496.81,239.113 1488.15,253.635 1481.98,269.594 C1475.84,285.555 1472.74,301.524 1472.74,317.62 C1472.74,321.842 1472.9,325.629 1473.25,329.069 C1474.72,343.55 1486.43,360.592 1486.43,360.592 C1489.38,365.094 1495.15,370.796 1501.59,373.519 C1508.02,376.235 1515.21,377.596 1523.21,377.596 C1539.24,377.596 1554.69,371.29 1569.43,358.632 C1584.19,345.966 1598.71,326.703 1613.1,300.878 C1609.25,312.036 1606.44,321.204 1604.72,328.286 C1603.07,335.444 1602.22,341.454 1602.22,346.315 C1602.22,357.415 1606.73,365.212 1615.67,369.791 C1623.62,373.932 1636.69,376.198 1654.95,376.648 C1654.95,376.648 1662.43,376.42 1668.05,375.735 C1673.66,375.05 1714.81,337.092 1714.81,337.092 C1714.81,337.092 1686.18,348.592 1666.81,348.467 C1655.91,348.397 1652.53,345.252 1649.1,342.739 C1644.79,339.658 1642.65,334.432 1642.65,326.992 C1642.65,318.769 1647.09,300.519 1655.89,272.319 C1664.7,244.05 1676,214.053 1689.88,182.354 L1727.6,95.105 C1728.02,94.159 1728.5,93.108 1729.02,91.973 C1730.96,89.253 1732.75,87.329 1734.38,86.219 C1736.37,84.883 1738.14,83.997 1739.64,83.597 C1741.13,83.197 1742.39,83.035 1743.45,83.188 C1744.44,83.291 1745.22,82.95 1745.73,82.184 C1747.52,79.46 1747.62,75.962 1746.05,71.689 L1746.05,71.689 L1746.05,71.689 Z" id="Fill-16" fill="#FFFFFF" sketch:type="MSShapeGroup"></path>
                        <path d="M182.553,262.548 C177.555,273.466 172.122,284.192 166.681,294.895 C161.194,305.687 155.68,316.483 149.704,327.014 C145.63,334.193 141.331,341.249 136.705,348.087 C132.652,354.078 128.268,359.445 122.848,364.263 C117.636,368.897 111.868,373.424 105.949,377.12 C101.157,380.112 97.66,382.117 93.376,384.617 C90.773,386.135 87.735,388.32 86.268,391.068 C84.719,393.968 84.553,396.564 85.041,399.818 C86.009,406.289 93.638,409.527 99.028,411.709 C105.278,414.237 111.786,415.522 118.492,415.811 C125.344,416.106 133.275,416.17 139.87,415.133 C153.047,413.06 163.861,405.409 173.062,395.68 C181.962,386.268 189.22,375.302 195.884,364.248 C203.231,352.058 209.198,339.198 214.591,326.043 C219.638,313.732 224.707,301.432 229.828,289.151 C235.313,275.999 240.789,262.84 245.962,249.562 C251.438,235.508 256.188,221.195 261.163,206.959 C273.067,172.895 284.864,138.786 300.025,106.001 C301.9,101.946 303.816,97.911 305.771,93.895 C310.138,93.437 314.497,92.901 318.842,92.27 C326.755,91.122 334.629,89.662 342.395,87.752 C357.276,84.09 372.091,78.763 385.402,71.105 C398.58,63.525 411.357,52.689 416.022,37.685 C418.159,30.814 418.131,23.21 414.739,16.743 C411.604,10.765 406.232,6.315 400.031,3.784 C392.639,0.767 384.381,0.226 376.479,0.259 C368.114,0.294 359.856,1.479 351.818,3.786 C335.718,8.407 321.166,16.706 308.194,27.222 C297.76,35.682 288.799,44.86 279.902,54.905 C279.902,54.905 278.431,54.879 275.313,55.125 C272.928,55.313 270.548,55.556 268.165,55.771 C263.689,56.174 259.214,56.574 254.738,56.97 C246.21,57.726 237.68,58.469 229.149,59.199 C213.493,60.537 197.83,61.787 182.169,63.058 C165.469,64.415 148.777,65.89 132.11,67.619 C116.143,69.276 100.181,71.097 84.359,73.85 C69.366,76.459 54.248,79.651 40.19,85.624 C26.815,91.307 14.625,99.895 7.767,113.037 C4.309,119.663 2.267,126.956 1.071,134.308 C-0.323,142.878 -0.527,151.506 1.487,159.998 C5.14,175.395 15.292,188.122 28.965,195.889 C43.403,204.091 60.444,205.696 76.769,205.205 C92.448,204.733 108.689,201.34 122.949,194.703 C129.79,191.519 136.321,187.423 141.103,181.485 C143.003,179.124 144.858,176.195 144.598,173.03 C144.305,169.47 141.302,168.467 138.227,168.046 C133.991,167.466 129.385,167.916 125.124,168.112 C121.211,168.292 117.318,168.736 113.406,168.905 C105.698,169.24 97.836,168.839 90.216,167.611 C82.051,166.294 73.469,164.616 66.054,160.802 C62.937,159.199 59.388,157.124 57.685,153.93 C56.277,151.289 56.427,148.159 57.38,145.392 C59.378,139.597 64.794,135.68 69.982,132.907 C76.152,129.609 82.913,127.295 89.586,125.253 C104.879,120.574 120.697,117.816 136.461,115.275 C153.648,112.504 170.912,110.346 188.196,108.287 C207.499,105.987 226.802,103.691 246.105,101.387 C234.604,134.316 222.483,167.035 209.468,199.397 C200.93,220.628 192.042,241.724 182.553,262.548 C175.76,277.384 189.319,247.701 182.553,262.548" id="Fill-18" fill="#FFFFFF" sketch:type="MSShapeGroup"></path>
                    </g>
                    <path d="M1357.95,311.321 C1341.56,331.725 1326.51,341.956 1312.86,341.956 C1307.97,341.956 1304.34,340.305 1301.98,337.01 C1299.61,333.716 1298.39,328.643 1298.39,321.842 C1298.39,312.317 1301.04,301.235 1306.27,288.569 C1311.48,275.893 1318.56,263.943 1327.51,252.631 C1337.32,240.331 1347.55,230.6 1358.23,223.434 C1368.97,216.352 1378.42,212.768 1386.62,212.768 C1390.44,212.768 1394.15,213.483 1397.86,214.844 C1401.52,216.284 1405.32,218.428 1409.04,221.356 C1391.29,260.938 1374.26,290.918 1357.95,311.321 L1357.95,311.321 L1357.95,311.321 Z M1476.66,339.181 C1476.66,339.181 1460.84,348.04 1443.95,348.122 C1435.53,348.163 1427.62,345.531 1424.57,343.676 C1421.06,341.531 1419.36,337.667 1419.36,332.083 C1419.36,323.919 1421.71,312.403 1426.36,297.37 C1431.07,282.338 1438.02,264.223 1447.26,243.182 C1451.84,232.524 1457.14,221.356 1463.15,209.628 C1469.16,197.881 1472.15,191.3 1472.15,189.871 C1472.15,185.436 1468.58,181.571 1461.36,178.286 C1454.21,174.983 1445.75,173.34 1436.09,173.34 C1432.59,173.34 1429.93,174.132 1428.14,175.63 C1426.36,177.205 1424.5,180.856 1422.71,186.576 L1419.79,195.957 C1413.91,190.083 1407.68,185.862 1401.09,183.223 C1394.52,180.567 1386.71,179.205 1377.6,179.205 C1359.43,179.205 1341.9,184.499 1324.88,195.02 C1307.92,205.61 1292.44,220.931 1278.43,241.037 C1269.34,254.35 1262.31,267.883 1257.24,281.69 C1252.23,295.429 1249.73,308.095 1249.73,319.688 C1249.73,323.348 1249.88,326.78 1250.17,329.937 C1250.45,333.01 1250.87,336.083 1251.37,339.01 C1253.93,353.342 1261.26,364.36 1261.26,364.36 C1264.61,368.718 1269.26,372.005 1275.22,374.234 C1281.14,376.448 1288.09,377.596 1296.04,377.596 C1312.86,377.596 1328.54,371.442 1343.19,359.133 C1357.85,346.817 1372.68,327.426 1387.64,300.878 C1383.78,312.036 1380.99,321.204 1379.27,328.286 C1377.6,335.444 1376.75,341.454 1376.75,346.315 C1376.75,357.415 1381.28,365.212 1390.21,369.791 C1398.46,374.085 1416.5,376.864 1431.53,376.69 C1465.31,376.3 1486.43,360.592 1486.43,360.592 L1476.66,339.181 L1476.66,339.181 Z" id="Fill-20" fill="#FFFFFF" sketch:type="MSShapeGroup"></path>
                    <path d="M1755.08,311.449 C1751.57,307.44 1749.07,302.928 1747.48,297.983 C1745.97,292.977 1745.2,287.104 1745.2,280.243 C1745.2,262.206 1749.7,246.383 1758.65,232.798 C1767.61,219.118 1777.84,212.317 1789.5,212.317 C1795.08,212.317 1799.29,213.9 1802.23,217.05 C1805.16,220.2 1806.68,224.778 1806.68,230.788 C1806.68,242.807 1801.74,256.835 1791.78,273.016 C1781.84,289.181 1769.6,302.001 1755.08,311.449 L1755.08,311.449 L1755.08,311.449 Z M1856.7,320.012 C1855.4,322.067 1853.98,324.108 1852.44,326.094 C1844.9,335.819 1834.39,344.227 1820.88,346.391 C1810.99,347.974 1801.43,347.225 1794.49,344.936 C1787.61,342.569 1781.18,338.705 1775.3,333.274 C1795.49,318.029 1811.58,300.494 1823.68,280.533 C1835.79,260.632 1841.78,242.45 1841.78,225.919 C1841.78,210.887 1837.58,198.945 1829.13,190.202 C1820.69,181.478 1809.16,177.111 1794.63,177.111 C1768.58,177.111 1746.11,187.411 1726.99,208.104 C1707.89,228.78 1698.37,253.116 1698.37,281.103 C1698.37,293.122 1699.66,303.575 1702.17,312.522 C1704.67,321.46 1709.51,330.078 1714.81,337.092 C1707.08,340.455 1695.7,344.258 1691.39,345.467 C1687.03,346.692 1685.77,345.932 1674.76,348.152 C1673.18,349.551 1668.57,353.266 1670.85,353.426 L1666,375.945 C1676.13,374.961 1686.18,373.207 1696.14,370.633 C1709.83,367.118 1723.43,362.19 1736.95,355.746 C1745.59,362.828 1755.93,368.132 1767.78,371.561 C1779.68,375.001 1786.67,375.92 1802.34,376.438 C1828.13,377.299 1854.22,367.217 1866.71,341.383 C1876.27,321.625 1866.13,305.031 1856.7,320.012 L1856.7,320.012 L1856.7,320.012 Z" id="Fill-21" fill="#FFFFFF" sketch:type="MSShapeGroup"></path>
                    <path d="M373.954,311.321 C357.56,331.725 342.51,341.956 328.856,341.956 C323.971,341.956 320.345,340.305 317.979,337.01 C315.611,333.716 314.386,328.643 314.386,321.842 C314.386,312.317 317.042,301.235 322.269,288.569 C327.478,275.893 334.56,263.943 343.515,252.631 C353.32,240.331 363.552,230.6 374.227,223.434 C384.969,216.352 394.417,212.768 402.622,212.768 C406.436,212.768 410.147,213.483 413.858,214.844 C417.519,216.284 421.315,218.428 425.043,221.356 C407.287,260.938 390.263,290.918 373.954,311.321 L373.954,311.321 L373.954,311.321 Z M492.664,339.181 C492.664,339.181 476.558,348.033 459.671,348.122 C451.87,348.163 443.617,345.531 440.569,343.676 C437.063,341.531 435.36,337.667 435.36,332.083 C435.36,323.919 437.709,312.403 442.357,297.37 C447.072,282.338 454.019,264.223 463.263,243.182 C467.842,232.524 473.137,221.356 479.146,209.628 C485.156,197.881 488.152,191.3 488.152,189.871 C488.152,185.436 484.577,181.571 477.358,178.286 C470.209,174.983 461.747,173.34 452.095,173.34 C448.588,173.34 445.932,174.132 444.145,175.63 C442.357,177.205 440.501,180.856 438.714,186.576 L435.785,195.957 C429.912,190.083 423.682,185.862 417.093,183.223 C410.521,180.567 402.708,179.205 393.6,179.205 C375.435,179.205 357.899,184.499 340.876,195.02 C323.92,205.61 308.444,220.931 294.434,241.037 C285.343,254.35 278.312,267.883 273.238,281.69 C268.233,295.429 265.73,308.095 265.73,319.688 C265.73,323.348 265.884,326.78 266.174,329.937 C266.446,333.01 266.871,336.083 267.365,339.01 C269.933,353.342 277.256,364.36 277.256,364.36 C280.61,368.718 285.258,372.005 291.216,374.234 C297.141,376.448 304.086,377.596 312.037,377.596 C328.856,377.596 344.536,371.442 359.193,359.133 C373.852,346.817 388.68,327.426 403.644,300.878 C399.779,312.036 396.987,321.204 395.268,328.286 C393.6,335.444 392.748,341.454 392.748,346.315 C392.748,357.415 397.277,365.212 406.215,369.791 C414.458,374.085 432.496,376.864 447.529,376.69 C481.308,376.3 502.433,360.592 502.433,360.592 L492.664,339.181 L492.664,339.181 Z" id="Fill-22" fill="#FFFFFF" sketch:type="MSShapeGroup"></path>
                </g>
            </g>
        </g>
    </g>
</svg>